#!OML:ASF H:\ManfredETheater\Project 1\Capture day 1\Session 1\subject.ASF
:FULLY-SPECIFIED
:DEGREES
124
root 9.06173 15.8492 13.5642 15.8451 2.72715 12.2428
lowerback 18.5607 -1.65294 -5.6388
upperback 1.2527 -3.37705 -0.456928
thorax -8.75065 -1.39805 3.56577
lowerneck -21.311 -1.07208 -4.18479
upperneck 3.80046 -0.0812241 -2.57731
head 4.50235 -0.302003 -0.161698
rclavicle -4.09496e-014 6.36111e-015
rhumerus -48.1905 1.63338 -85.8901
rradius 75.4305
rwrist -16.5643
rhand -26.3728 9.16214
rfingers 7.12502
rthumb 0.185672 -20.8175
lclavicle -4.09496e-014 6.36111e-015
lhumerus -36.9926 -17.3542 97.1662
lradius 92.154
lwrist 6.74951
lhand -23.5857 -12.247
lfingers 7.12502
lthumb 2.87747 17.7133
rfemur -56.0984 -4.48272 16.8363
rtibia 66.5787
rfoot -16.8679 -17.8249
rtoes -22.9834
lfemur -9.51521 -7.29604 -23.2076
ltibia 65.0853
lfoot 1.0426 -8.71783
ltoes -10.0393
125
root 9.09039 15.8349 14.0423 15.6107 2.50618 11.1581
lowerback 18.7964 -1.50399 -4.58801
upperback 1.2982 -2.93885 -0.0801382
thorax -8.9043 -1.21762 3.28194
lowerneck -21.2237 -1.04613 -4.05531
upperneck 3.53362 -0.0673614 -2.8692
head 4.40599 -0.306255 -0.271694
rclavicle -9.93923e-015 4.77083e-015
rhumerus -46.5402 2.21412 -86.0514
rradius 75.0691
rwrist -16.3197
rhand -26.2753 8.81169
rfingers 7.12502
rthumb 0.279879 -21.1679
lclavicle -9.93923e-015 4.77083e-015
lhumerus -37.7351 -16.5356 97.43
lradius 89.0474
lwrist 7.46245
lhand -24.2239 -12.6196
lfingers 7.12502
lthumb 2.26114 17.3482
rfemur -54.0998 -3.83824 17.8769
rtibia 67.109
rfoot -18.5275 -18.8245
rtoes -24.6268
lfemur -11.7994 -6.31987 -22.1699
ltibia 68.4448
lfoot -0.212137 -8.77441
ltoes -9.96504
126
root 9.11564 15.8193 14.5188 15.4318 2.30088 10.1512
lowerback 18.9904 -1.36426 -3.63147
upperback 1.32376 -2.52938 0.259044
thorax -9.04299 -1.04943 3.01181
lowerneck -21.1537 -1.00549 -3.89194
upperneck 3.33293 -0.0417472 -3.14335
head 4.33328 -0.30427 -0.380408
rclavicle -1.90833e-014 2.3059e-014
rhumerus -44.9383 2.84447 -86.2393
rradius 75.0105
rwrist -16.1481
rhand -26.1398 8.42706
rfingers 7.12502
rthumb 0.410674 -21.5523
lclavicle -1.90833e-014 2.3059e-014
lhumerus -38.5153 -15.6393 97.5673
lradius 86.171
lwrist 7.81768
lhand -24.8313 -13.0161
lfingers 7.12502
lthumb 1.67454 16.9571
rfemur -52.058 -3.31014 18.8573
rtibia 67.4634
rfoot -20.1226 -19.8348
rtoes -26.5993
lfemur -14.2769 -5.21123 -21.181
ltibia 71.6758
lfoot -1.4756 -8.54927
ltoes -9.87545
127
root 9.13765 15.8033 14.9956 15.3226 2.13609 9.25566
lowerback 19.116 -1.24252 -2.78997
upperback 1.32344 -2.16632 0.554966
thorax -9.15861 -0.901182 2.76649
lowerneck -21.115 -0.952652 -3.70702
upperneck 3.21648 -0.00335503 -3.38911
head 4.29196 -0.295833 -0.482723
rclavicle -5.96354e-015 -6.36111e-015
rhumerus -43.4211 3.51125 -86.4561
rradius 75.329
rwrist -16.088
rhand -25.9919 8.03303
rfingers 7.12502
rthumb 0.553575 -21.946
lclavicle -5.96354e-015 -6.36111e-015
lhumerus -39.4016 -14.7085 97.5841
lradius 83.6452
lwrist 7.69283
lhand -25.3431 -13.386
lfingers 7.12502
lthumb 1.18018 16.5905
rfemur -49.9861 -2.95942 19.758
rtibia 67.6731
rfoot -21.6527 -20.7739
rtoes -28.4562
lfemur -16.9503 -4.02096 -20.3002
ltibia 74.7563
lfoot -2.80274 -8.05071
ltoes -9.96744
128
root 9.15691 15.7879 15.474 15.2864 2.01934 8.49321
lowerback 19.1576 -1.13941 -2.07739
upperback 1.29503 -1.85601 0.80326
thorax -9.24695 -0.775167 2.55217
lowerneck -21.1176 -0.892118 -3.51782
upperneck 3.19411 0.0462678 -3.5916
head 4.2865 -0.2815 -0.571574
rclavicle 3.97569e-015 2.38542e-014
rhumerus -42.0332 4.19505 -86.7083
rradius 76.0977
rwrist -16.1661
rhand -25.8685 7.71784
rfingers 7.12502
rthumb 0.672751 -22.2608
lclavicle 3.97569e-015 2.38542e-014
lhumerus -40.457 -13.8023 97.4986
lradius 81.6015
lwrist 7.08176
lhand -25.6948 -13.6616
lfingers 7.12502
lthumb 0.840506 16.3165
rfemur -47.8724 -2.80024 20.5441
rtibia 67.6993
rfoot -23.1501 -21.5565
rtoes -30.1349
lfemur -19.8021 -2.78823 -19.5843
ltibia 77.6103
lfoot -4.1511 -7.3295
ltoes -10.1902
129
root 9.17322 15.7747 15.9554 15.3188 1.97498 7.8594
lowerback 19.1112 -1.05985 -1.48433
upperback 1.23675 -1.60444 1.0097
thorax -9.30993 -0.674073 2.37276
lowerneck -21.1653 -0.831622 -3.34002
upperneck 3.26614 0.100223 -3.73953
head 4.31741 -0.2643 -0.641664
rclavicle 5.56597e-015 -1.27222e-014
rhumerus -40.8134 4.87071 -86.9986
rradius 77.3788
rwrist -16.372
rhand -25.7619 7.51782
rfingers 7.12502
rthumb 0.775685 -22.4605
lclavicle 5.56597e-015 -1.27222e-014
lhumerus -41.7357 -12.9895 97.3415
lradius 80.1596
lwrist 6.12566
lhand -25.8668 -13.8328
lfingers 7.12502
lthumb 0.674394 16.1459
rfemur -45.7045 -2.82788 21.206
rtibia 67.5264
rfoot -24.6122 -22.211
rtoes -31.7652
lfemur -22.8213 -1.55171 -19.0519
ltibia 80.1971
lfoot -5.47107 -6.48225
ltoes -10.41
130
root 9.18677 15.7645 16.441 15.4173 2.01918 7.32503
lowerback 18.9676 -1.00316 -0.9781
upperback 1.14975 -1.40407 1.18616
thorax -9.34392 -0.595202 2.22131
lowerneck -21.2413 -0.784777 -3.19169
upperneck 3.40541 0.142552 -3.82806
head 4.37348 -0.251196 -0.689929
rclavicle -4.69132e-014 1.66979e-014
rhumerus -39.7922 5.51212 -87.3263
rradius 79.2098
rwrist -16.6939
rhand -25.667 7.48479
rfingers 7.12502
rthumb 0.867407 -22.4932
lclavicle -4.69132e-014 1.66979e-014
lhumerus -43.2673 -12.3469 97.1595
lradius 79.4064
lwrist 5.08643
lhand -25.8562 -13.9095
lfingers 7.12502
lthumb 0.684589 16.0691
rfemur -43.4822 -3.01647 21.7656
rtibia 67.1463
rfoot -25.9715 -22.7678
rtoes -33.3114
lfemur -25.9962 -0.352338 -18.6933
ltibia 82.4897
lfoot -6.76237 -5.60324
ltoes -10.557
131
root 9.19787 15.757 16.9317 15.5585 2.14274 6.85258
lowerback 18.737 -0.957839 -0.525147
upperback 1.0406 -1.23319 1.3413
thorax -9.34985 -0.529236 2.08315
lowerneck -21.341 -0.764846 -3.08325
upperneck 3.60171 0.157489 -3.85725
head 4.45064 -0.249732 -0.716175
rclavicle 1.74931e-014 -4.77083e-015
rhumerus -38.9907 6.09869 -87.6874
rradius 81.5946
rwrist -17.0736
rhand -25.5535 7.62068
rfingers 7.12502
rthumb 0.977018 -22.3568
lclavicle 1.74931e-014 -4.77083e-015
lhumerus -45.0587 -11.9356 97.0048
lradius 79.3683
lwrist 4.27479
lhand -25.6984 -13.95
lfingers 7.12502
lthumb 0.837006 16.0281
rfemur -41.1833 -3.30991 22.2513
rtibia 66.5606
rfoot -27.2072 -23.2095
rtoes -34.7771
lfemur -29.2803 0.80129 -18.4894
ltibia 84.4621
lfoot -8.02539 -4.7783
ltoes -10.6588
132
root 9.20691 15.7511 17.4264 15.7688 2.35997 6.406
lowerback 18.4036 -0.922357 -0.080749
upperback 0.897226 -1.08041 1.48619
thorax -9.33373 -0.472149 1.94212
lowerneck -21.4488 -0.786171 -3.03057
upperneck 3.83243 0.127723 -3.82236
head 4.53925 -0.267517 -0.717923
rclavicle 8.74653e-015 5.56597e-015
rhumerus -38.4115 6.62849 -88.0752
rradius 84.4858
rwrist -17.4532
rhand -25.3745 7.91415
rfingers 7.12502
rthumb 1.14982 -22.0625
lclavicle 8.74653e-015 5.56597e-015
lhumerus -47.0916 -11.7867 96.9247
lradius 80.0106
lwrist 3.942
lhand -25.4329 -13.9616
lfingers 7.12502
lthumb 1.09343 16.0154
rfemur -38.8603 -3.6735 22.7068
rtibia 65.782
rfoot -28.2863 -23.5302
rtoes -36.1673
lfemur -32.707 1.87645 -18.4122
ltibia 86.1076
lfoot -9.2546 -4.08734
ltoes -10.7734
